<svg id="Layer_1" data-name="Layer 1" xmlns="http://www.w3.org/2000/svg" viewBox="0 0 800 800"><defs><style>.cls-1{fill:#213242;}</style></defs><title>loader</title><path class="cls-1" d="M735.37,407.88c-6.53,0-57.11-1.22-78.07-1.22s-68.06,2.49-76.65,2.49a6.07,6.07,0,0,1,0-12.11c8.59-.12,53.79,2.26,74.74,2.46,4.36,0,5.33-5.35,16.63-5.35,58.27,0,65.73,8.26,65.73,11.38A2.29,2.29,0,0,1,735.37,407.88Z"/><path class="cls-1" d="M692.3,146.92a31.95,31.95,0,1,0-53.3-13.8h0l0,.1c.05.17.1.34.16.52,2.58,7.94,2.25,11.7-3.8,17.86L521.07,265.91a5,5,0,0,0,7,7l114-114c6.41-6.42,10.15-6.74,18.35-4.05l.22.07.23.07h0A32,32,0,0,0,692.3,146.92Z"/><path class="cls-1" d="M83.2,403.1h0a1,1,0,0,0-1-1l-37.23-.52a.75.75,0,0,1-.81-.74.74.74,0,0,1,.81-.73l37.23-1.38a1,1,0,0,0,1-1h0a1,1,0,0,0-1-1l-37.24.24a.71.71,0,1,1-.13-1.41,414.49,414.49,0,0,1,44.85-2.59c5.62.06,8.24,7.7,12.51,7.7,27.3,0,87.63-3.79,99.06-3.56a6.08,6.08,0,0,1,0,12.13c-11.43.23-71.76-3.56-99.06-3.56-4.27,0-6.89,7.64-12.51,7.69a415.78,415.78,0,0,1-44.85-2.57.71.71,0,1,1,.13-1.42l37.24.25a1,1,0,0,0,1-1h0a1,1,0,0,0-1-1l-37.23-1.38a.74.74,0,1,1,0-1.47l37.23-.53a1,1,0,0,0,1-1Z"/><path class="cls-1" d="M283.38,91c-7.8-18.84-25.58-36.49-35.17-32.52s-9.68,29-1.88,47.86c8.7,21,19.41,5.91,27.7,25.94,6.2,15,35.64,97.94,36.54,100.13s6.52,2.05,9.94.63,7.49-5.3,6.59-7.48-38.76-81.67-45-96.63C273.84,108.92,292.08,112,283.38,91Zm38.21,132.06c.85,2.07-.44,4.56-2.9,5.58s-5.13.17-6-1.9.44-4.55,2.89-5.57S320.73,221,321.59,223.09Z"/><path class="cls-1" d="M755.32,268.59l-12-24.36a6.23,6.23,0,0,0-7.83-2.95L678,265.11c-9.18,3.8-5,16.44-16.4,21.15-14.95,6.19-97.78,35.58-100,36.48s-2.05,6.5-.63,9.93,5.28,7.48,7.46,6.57,81.54-38.69,96.48-44.88c11.37-4.71,17.37,7.16,26.56,3.36l60.93-22.23A4.82,4.82,0,0,0,755.32,268.59ZM690,271.43a1.88,1.88,0,1,1-1.43-3.47l46.1-19.1a1.88,1.88,0,1,1,1.43,3.47Zm48.57-13.21a1.88,1.88,0,0,1,1.39,3.5l-50.31,20a1.88,1.88,0,0,1-1.39-3.49ZM570.92,333.74c-2.06.86-4.54-.44-5.56-2.89s-.17-5.12,1.89-6,4.55.44,5.56,2.89S573,332.89,570.92,333.74Zm126.13-45a1.88,1.88,0,1,1-1.3-3.53l46.8-17.3a1.88,1.88,0,0,1,1.3,3.53Z"/><path class="cls-1" d="M411,61.06C411,48.7,405.79,40,400.38,35a.82.82,0,0,0-1.37.73,80.92,80.92,0,0,1,1,12.67c0,15.66-4,28.36-9,28.36s-9-12.7-9-28.36a80.92,80.92,0,0,1,1-12.67.81.81,0,0,0-1.36-.73c-5.41,5-10.62,13.69-10.62,26.05,0,22.73,15.67,25.44,15.67,47.13,0,16.2-4.56,104.12-4.56,106.48s5.23,4.39,8.94,4.39,8.94-2,8.94-4.39-4.55-90.28-4.55-106.48C395.33,86.5,411,83.79,411,61.06ZM395.75,210.25c0,2.24-2.15,4.05-4.81,4.05s-4.8-1.81-4.8-4.05,2.15-4,4.8-4S395.75,208,395.75,210.25Z"/><path class="cls-1" d="M499.22,702.42,526,760.16c1.19,2.57,4.59,1.21,3.63-1.5l-20.92-58a5,5,0,0,1,9.28-3.85s25.83,55,26.26,55.84c1.23,2.6,4.6,1.16,3.63-1.5L526,691.31c-3.8-9.18-13.54-6.23-18.25-17.6-6.19-14.94-35.58-97.78-36.48-100s-6.5-2-9.93-.63-7.48,5.28-6.58,7.46,38.7,81.54,44.89,96.48c4.71,11.37-4.26,16.17-.46,25.36ZM460.3,583.08c-.86-2.07.44-4.55,2.89-5.57s5.12-.17,6,1.89-.44,4.55-2.89,5.56S461.15,585.13,460.3,583.08Z"/><path class="cls-1" d="M642.31,674.21a14,14,0,1,0,19.75-19.74l-48.37-48.38c-11.81-11.8-20.09-5.92-32.3-19.36-19.92-22-50.36-55.36-51.51-56.51-1.56-1.56-6.35.56-8.8,3s-4.57,7.24-3,8.8c1.15,1.15,34.56,31.59,56.51,51.52,13.44,12.2,7.56,20.49,19.36,32.29ZM524.22,536.37c1.75-1.75,4.37-2,5.84-.5s1.25,4.08-.51,5.83-4.36,2-5.83.51S522.47,538.13,524.22,536.37Z"/><path class="cls-1" d="M264,263.55c-1.67-1.66-67-60.52-78.39-72-8.71-8.7.09-17.12-7.06-25.82-4.81-5.85-14.15-16.84-19.75-23.41a8.59,8.59,0,0,0-11.13-1.71,64.92,64.92,0,0,0-19.2,19.2A8.58,8.58,0,0,0,130.2,171c6.57,5.6,17.57,14.94,23.42,19.75,8.7,7.15,17.12-1.64,25.82,7.06,11.44,11.44,70.29,76.72,72,78.39s6.79-.6,9.41-3.22h0C263.43,270.34,265.69,265.22,264,263.55ZM156.45,186.61a1.57,1.57,0,0,1-2.22.13l-21.14-18.83a1.57,1.57,0,0,1,2.1-2.34l21.13,18.83A1.57,1.57,0,0,1,156.45,186.61Zm4.54-4.53a1.57,1.57,0,0,1-2.23.07l-21.56-20.3a1.57,1.57,0,0,1,2.16-2.29l21.56,20.3A1.58,1.58,0,0,1,161,182.08Zm4.47-4.47a1.56,1.56,0,0,1-1.11.46,1.54,1.54,0,0,1-1.11-.46L142,156.39a1.58,1.58,0,0,1,0-2.22,1.56,1.56,0,0,1,2.22,0l21.23,21.22A1.58,1.58,0,0,1,165.46,177.61Zm4.47-4.47a1.61,1.61,0,0,1-1.08.43,1.56,1.56,0,0,1-1.14-.5L147.4,151.51a1.57,1.57,0,1,1,2.29-2.15L170,170.92A1.58,1.58,0,0,1,169.93,173.14Zm4.53-4.54a1.54,1.54,0,0,1-1,.4,1.59,1.59,0,0,1-1.18-.52l-18.83-21.14a1.57,1.57,0,1,1,2.35-2.09l18.83,21.14A1.57,1.57,0,0,1,174.46,168.6Zm83,101h0c-1.88,1.88-4.67,2.12-6.25.54s-1.33-4.37.54-6.24h0c1.87-1.88,4.66-2.12,6.24-.54S259.32,267.73,257.45,269.6Z"/><path class="cls-1" d="M132.24,620.4a29.27,29.27,0,1,0,49.91,22.14l0,0c.51-11.47-5-19.54,3.46-28,11.44-11.44,76.72-70.29,78.39-72s-.6-6.79-3.22-9.41h0c-2.62-2.62-7.74-4.89-9.41-3.22s-60.52,67-72,78.39c-8.42,8.43-16.49,3-28,3.46l0,0A29.18,29.18,0,0,0,132.24,620.4Zm42.56,30.8a1.26,1.26,0,1,1-1.78,0A1.25,1.25,0,0,1,174.8,651.2Zm-4,4a1.26,1.26,0,1,1-1.77,0A1.26,1.26,0,0,1,170.8,655.19Zm-4,4a1.25,1.25,0,1,1-1.77,0A1.25,1.25,0,0,1,166.81,659.19Zm-4,4a1.26,1.26,0,1,1-1.78,0A1.26,1.26,0,0,1,162.82,663.18Zm12-16a1.26,1.26,0,1,1-1.78,0A1.26,1.26,0,0,1,174.8,647.2Zm-4,4a1.25,1.25,0,1,1-1.77,0A1.25,1.25,0,0,1,170.8,651.2Zm-4,4a1.26,1.26,0,1,1-1.77,0A1.26,1.26,0,0,1,166.81,655.19Zm-4,4a1.26,1.26,0,1,1-1.78,0A1.26,1.26,0,0,1,162.82,659.19Zm-4,4a1.25,1.25,0,1,1-1.77,0A1.25,1.25,0,0,1,158.82,663.18Zm16-20a1.26,1.26,0,1,1-1.78,0A1.25,1.25,0,0,1,174.8,643.21Zm-4,4a1.26,1.26,0,1,1-1.77,0A1.26,1.26,0,0,1,170.8,647.2Zm-4,4a1.25,1.25,0,1,1-1.77,0A1.25,1.25,0,0,1,166.81,651.2Zm-4,4a1.26,1.26,0,1,1-1.77,0A1.26,1.26,0,0,1,162.81,655.19Zm-4,4a1.25,1.25,0,1,1-1.77,0A1.25,1.25,0,0,1,158.82,659.19Zm-4,4a1.26,1.26,0,1,1-1.78,0A1.25,1.25,0,0,1,154.83,663.18Zm20-24a1.26,1.26,0,1,1-1.78,0A1.25,1.25,0,0,1,174.8,639.22Zm-4,4a1.25,1.25,0,1,1-1.77,0A1.25,1.25,0,0,1,170.8,643.21Zm-4,4a1.26,1.26,0,1,1-1.77,0A1.26,1.26,0,0,1,166.81,647.2Zm-4,4a1.25,1.25,0,1,1-1.77,0A1.25,1.25,0,0,1,162.81,651.2Zm-4,4a1.26,1.26,0,1,1-1.77,0A1.26,1.26,0,0,1,158.82,655.19Zm-4,4a1.26,1.26,0,1,1-1.78,0A1.25,1.25,0,0,1,154.83,659.19Zm-4,4a1.25,1.25,0,1,1-1.77,0A1.25,1.25,0,0,1,150.83,663.18Zm24-28a1.26,1.26,0,1,1-1.78,0A1.26,1.26,0,0,1,174.8,635.22Zm-4,4a1.25,1.25,0,1,1-1.77,0A1.25,1.25,0,0,1,170.8,639.22Zm-4,4a1.25,1.25,0,1,1-1.77,0A1.25,1.25,0,0,1,166.81,643.21Zm-4,4a1.26,1.26,0,1,1-1.77,0A1.26,1.26,0,0,1,162.81,647.2Zm-4,4a1.25,1.25,0,1,1-1.77,0A1.25,1.25,0,0,1,158.82,651.2Zm-4,4a1.26,1.26,0,1,1-1.78,0A1.26,1.26,0,0,1,154.83,655.19Zm-4,4a1.25,1.25,0,1,1-1.77,0A1.25,1.25,0,0,1,150.83,659.19Zm-4,4a1.25,1.25,0,1,1-1.77,0A1.25,1.25,0,0,1,146.84,663.18Zm28-31.95a1.26,1.26,0,1,1-1.78,0A1.25,1.25,0,0,1,174.8,631.23Zm-4,4a1.26,1.26,0,1,1-1.77,0A1.26,1.26,0,0,1,170.8,635.22Zm-4,4a1.25,1.25,0,1,1-1.77,0A1.25,1.25,0,0,1,166.81,639.22Zm-4,4a1.25,1.25,0,1,1-1.77,0A1.25,1.25,0,0,1,162.81,643.21Zm-4,4a1.26,1.26,0,1,1-1.77,0A1.26,1.26,0,0,1,158.82,647.2Zm-4,4a1.26,1.26,0,1,1-1.78,0A1.25,1.25,0,0,1,154.83,651.2Zm-4,4a1.26,1.26,0,1,1-1.77,0A1.26,1.26,0,0,1,150.83,655.19Zm-4,4a1.26,1.26,0,0,1-1.78,1.77,1.26,1.26,0,1,1,1.78-1.77Zm24-28a1.25,1.25,0,1,1-1.77,0A1.25,1.25,0,0,1,170.8,631.23Zm-4,4a1.26,1.26,0,1,1-1.77,0A1.26,1.26,0,0,1,166.81,635.22Zm-4,4a1.25,1.25,0,1,1-1.77,0A1.25,1.25,0,0,1,162.81,639.22Zm-4,4a1.25,1.25,0,1,1-1.77,0A1.25,1.25,0,0,1,158.82,643.21Zm-4,4a1.26,1.26,0,1,1-1.78,0A1.26,1.26,0,0,1,154.83,647.2Zm-4,4a1.25,1.25,0,1,1-1.77,0A1.25,1.25,0,0,1,150.83,651.2Zm-4,4a1.26,1.26,0,0,1-1.78,1.78,1.28,1.28,0,0,1,0-1.78A1.26,1.26,0,0,1,146.84,655.19Zm-4,4a1.25,1.25,0,1,1-1.77,0A1.25,1.25,0,0,1,142.84,659.19ZM137.08,653a1.25,1.25,0,1,1,1.77,0A1.25,1.25,0,0,1,137.08,653Zm4-4a1.26,1.26,0,1,1,1.77,0A1.26,1.26,0,0,1,141.07,649Zm4-4a1.26,1.26,0,1,1,1.78,0A1.25,1.25,0,0,1,145.06,645Zm4-4a1.25,1.25,0,1,1,1.77,0A1.25,1.25,0,0,1,149.06,641Zm4-4a1.26,1.26,0,1,1,1.78,0A1.26,1.26,0,0,1,153.05,637Zm4-4a1.25,1.25,0,1,1,1.77,0A1.25,1.25,0,0,1,157.05,633Zm4-4a1.26,1.26,0,1,1,1.77,0A1.26,1.26,0,0,1,161,629Zm4-4a1.26,1.26,0,0,1,1.78-1.77A1.26,1.26,0,1,1,165,625Zm-27.95,32a1.26,1.26,0,1,1,1.77,0A1.26,1.26,0,0,1,137.08,657Zm4-4a1.25,1.25,0,1,1,1.77,0A1.25,1.25,0,0,1,141.07,653Zm4-4a1.26,1.26,0,1,1,1.78,0A1.27,1.27,0,0,1,145.06,649Zm4-4a1.25,1.25,0,1,1,1.77,0A1.25,1.25,0,0,1,149.06,645Zm4-4a1.26,1.26,0,1,1,1.78,0A1.25,1.25,0,0,1,153.05,641Zm4-4a1.26,1.26,0,1,1,1.77,0A1.26,1.26,0,0,1,157.05,637Zm4-4a1.25,1.25,0,1,1,1.77,0A1.25,1.25,0,0,1,161,633Zm4-4a1.28,1.28,0,0,1,0-1.78,1.26,1.26,0,1,1,0,1.78Zm-24,28a1.26,1.26,0,1,1,1.77,0A1.26,1.26,0,0,1,141.07,657Zm4-4a1.26,1.26,0,1,1,1.78,0A1.26,1.26,0,0,1,145.06,653Zm4-4a1.26,1.26,0,1,1,1.77,0A1.26,1.26,0,0,1,149.06,649Zm4-4a1.26,1.26,0,1,1,1.78,0A1.25,1.25,0,0,1,153.05,645Zm4-4a1.25,1.25,0,1,1,1.77,0A1.25,1.25,0,0,1,157.05,641Zm4-4a1.26,1.26,0,1,1,1.77,0A1.26,1.26,0,0,1,161,637Zm4-4a1.26,1.26,0,0,1,1.78-1.77A1.26,1.26,0,1,1,165,633Zm4-4a1.26,1.26,0,1,1,1.77,0A1.26,1.26,0,0,1,169,629Zm82.18-93c1.57-1.58,4.37-1.34,6.24.54h0c1.88,1.88,2.12,4.67.54,6.25s-4.37,1.33-6.24-.55h0C249.87,540.42,249.63,537.62,251.21,536.05ZM129.09,633a1.25,1.25,0,1,1,1.77,0A1.25,1.25,0,0,1,129.09,633Zm4-4a1.26,1.26,0,1,1,1.78,0A1.26,1.26,0,0,1,133.08,629Zm4-4a1.25,1.25,0,1,1,1.77,0A1.25,1.25,0,0,1,137.08,625Zm25.73-1.77a1.25,1.25,0,1,1-1.77,0A1.25,1.25,0,0,1,162.81,623.24Zm-4,4a1.26,1.26,0,1,1-1.77,0A1.26,1.26,0,0,1,158.82,627.23Zm-4,4a1.26,1.26,0,1,1-1.78,0A1.25,1.25,0,0,1,154.83,631.23Zm-4,4a1.26,1.26,0,1,1-1.77,0A1.26,1.26,0,0,1,150.83,635.22Zm-4,4a1.26,1.26,0,1,1-1.78,0A1.25,1.25,0,0,1,146.84,639.22Zm-4,4a1.25,1.25,0,1,1-1.77,0A1.25,1.25,0,0,1,142.84,643.21Zm-4,4a1.26,1.26,0,1,1-1.77,0A1.26,1.26,0,0,1,138.85,647.2Zm-4,4a1.26,1.26,0,1,1-1.78,0A1.25,1.25,0,0,1,134.86,651.2Zm27.95-32a1.25,1.25,0,1,1-1.77,0A1.25,1.25,0,0,1,162.81,619.25Zm-4,4a1.25,1.25,0,1,1-1.77,0A1.25,1.25,0,0,1,158.82,623.24Zm-4,4a1.26,1.26,0,1,1-1.78,0A1.26,1.26,0,0,1,154.83,627.23Zm-4,4a1.25,1.25,0,1,1-1.77,0A1.25,1.25,0,0,1,150.83,631.23Zm-4,4a1.26,1.26,0,1,1-1.78,0A1.26,1.26,0,0,1,146.84,635.22Zm-4,4a1.25,1.25,0,1,1-1.77,0A1.25,1.25,0,0,1,142.84,639.22Zm-4,4a1.25,1.25,0,1,1-1.77,0A1.25,1.25,0,0,1,138.85,643.21Zm-4,4a1.26,1.26,0,1,1-1.78,0A1.26,1.26,0,0,1,134.86,647.2Zm24-28a1.25,1.25,0,1,1-1.77,0A1.25,1.25,0,0,1,158.82,619.25Zm-4,4a1.26,1.26,0,1,1-1.78,0A1.25,1.25,0,0,1,154.83,623.24Zm-4,4a1.26,1.26,0,1,1-1.77,0A1.26,1.26,0,0,1,150.83,627.23Zm-4,4a1.26,1.26,0,1,1-1.78,0A1.25,1.25,0,0,1,146.84,631.23Zm-4,4a1.26,1.26,0,1,1-1.77,0A1.26,1.26,0,0,1,142.84,635.22Zm-4,4a1.25,1.25,0,1,1-1.77,0A1.25,1.25,0,0,1,138.85,639.22Zm-4,4a1.26,1.26,0,1,1-1.78,0A1.25,1.25,0,0,1,134.86,643.21Zm-4,4a1.26,1.26,0,1,1-1.77,0A1.26,1.26,0,0,1,130.86,647.2Zm24-28a1.26,1.26,0,1,1-1.78,0A1.26,1.26,0,0,1,154.83,619.24Zm-4,4a1.25,1.25,0,1,1-1.77,0A1.25,1.25,0,0,1,150.83,623.24Zm-4,4a1.26,1.26,0,1,1-1.78,0A1.26,1.26,0,0,1,146.84,627.23Zm-4,4a1.25,1.25,0,1,1-1.77,0A1.25,1.25,0,0,1,142.84,631.23Zm-4,4a1.25,1.25,0,1,1-1.77,0A1.26,1.26,0,0,1,138.85,635.22Zm-4,4a1.26,1.26,0,1,1-1.78,0A1.25,1.25,0,0,1,134.86,639.22Zm-4,4a1.25,1.25,0,1,1-1.77,0A1.25,1.25,0,0,1,130.86,643.21Zm20-24a1.26,1.26,0,1,1-1.77,0A1.26,1.26,0,0,1,150.83,619.24Zm-4,4a1.26,1.26,0,1,1-1.78,0A1.25,1.25,0,0,1,146.84,623.24Zm-4,4a1.26,1.26,0,1,1-1.77,0A1.26,1.26,0,0,1,142.84,627.23Zm-4,4a1.25,1.25,0,1,1-1.77,0A1.25,1.25,0,0,1,138.85,631.23Zm-4,4a1.26,1.26,0,1,1-1.78,0A1.25,1.25,0,0,1,134.86,635.22Zm-4,4a1.25,1.25,0,1,1-1.77,0A1.25,1.25,0,0,1,130.86,639.22Zm16-20a1.26,1.26,0,1,1-1.78,0A1.28,1.28,0,0,1,146.84,619.24Zm-4,4a1.25,1.25,0,1,1-1.77,0A1.25,1.25,0,0,1,142.84,623.24Zm-4,4a1.26,1.26,0,1,1-1.77,0A1.26,1.26,0,0,1,138.85,627.23Zm-4,4a1.26,1.26,0,1,1-1.78,0A1.25,1.25,0,0,1,134.86,631.23Zm-4,4a1.25,1.25,0,1,1-1.77,0A1.25,1.25,0,0,1,130.86,635.22ZM141.07,621a1.26,1.26,0,1,1,1.77,0A1.26,1.26,0,0,1,141.07,621Z"/><path class="cls-1" d="M404,777.6c10.38,0,7-13.56,7-45,0-22.74-15.66-12.89-15.66-34.57,0-16.2,4.55-104.12,4.55-106.48s-5.23-4.39-8.94-4.39-8.94,2-8.94,4.39,4.56,90.28,4.56,106.48c0,21.68-15.67,11.83-15.67,34.57C370.89,765.31,384.84,777.6,404,777.6ZM386.14,595.93c0-2.23,2.15-4,4.8-4s4.81,1.81,4.81,4-2.15,4-4.81,4S386.14,598.16,386.14,595.93Zm4.8,141.3a8.26,8.26,0,1,1-8.25,8.26A8.26,8.26,0,0,1,390.94,737.23Z"/><path class="cls-1" d="M59.69,519.17a19.53,19.53,0,1,0,14.94,36.08c7.23-3,15.61-9.55,25.33-17.15,11.29-8.82,23.83-18.55,37-24.49,29.13-10.78,81.64-29.43,83.37-30.15,2.19-.9,2.06-6.51.64-9.94s-5.3-7.49-7.48-6.58c-1.73.72-52.1,24.68-80.31,37.65-13.47,5.07-29.2,7.06-43.41,8.8C77.48,514.89,66.91,516.18,59.69,519.17ZM52,544.8,126.25,514c-10.33,5.17-20.47,11.26-29.82,16.88-10.17,6.11-19,11.4-25.95,14.29C62.66,548.45,54.7,548.17,52,544.8Zm-.93-2.23c-.47-4.29,5-10.12,12.78-13.36,7-2.89,16.94-5.37,28.46-8.25,10.58-2.63,22-5.5,33-9.15ZM73.71,553a17.11,17.11,0,0,1-18.62-3.69c4.3,1.19,10.24.64,16.31-1.88,7.16-3,16-8.29,26.28-14.46,7.9-4.74,16.37-9.82,25-14.38a296.57,296.57,0,0,0-24.24,17.6C88.9,543.68,80.63,550.15,73.71,553Zm142.81-77.67c1,2.46.16,5.14-1.9,6s-4.55-.44-5.57-2.89-.17-5.14,1.89-6S215.5,472.89,216.52,475.34Zm-96.91,35.75c-9.35,2.89-18.93,5.3-27.88,7.53C80.11,521.52,70.08,524,62.92,527c-6.07,2.51-10.66,6.32-12.86,10.21a17.13,17.13,0,0,1,10.56-15.78c6.92-2.87,17.33-4.15,29.39-5.62A298.22,298.22,0,0,0,119.61,511.09Z"/><path class="cls-1" d="M530.49,108l-4.87-3.9c1-1.34,1.14-3.42-.77-5.73s-2.64-4.72-.25-9.65c7.95-16.38,13.85-33.3,15.44-41.58s2.76-9.65,5.17-10.56,3.79-4.16,3.34-7.31c-.65-4.57-7.91-10.13-15.32-4.56C525,30.91,521.56,45.3,516,63s-11.54,35.67-12.6,39c-.84,2.66-.21,3.85,1.13,4.16-4.69,12-30.57,78.57-36.53,97.28-6.56,20.59-5.58,30-5.58,30C498.62,198.05,530.49,108,530.49,108Zm10.89-75a2.64,2.64,0,1,1,3.45-1.43A2.63,2.63,0,0,1,541.38,33Z"/><path class="cls-1" d="M240.48,705.45l2.92,2c1.47,1,.2,3.7-1.5,3.16l-3.38-1.09a4.3,4.3,0,1,0-2.64,8.18l3.38,1.09c1.7.55,1.23,3.43-.54,3.45l-3.55,0a4.31,4.31,0,0,0,.11,8.61l3.55,0a1.8,1.8,0,0,1,.72,3.39l-3.29,1.34a4.3,4.3,0,1,0,3.24,8l3.29-1.33c1.72-.72,2.72.72,1.89,2.73l-1.36,3.28a4.3,4.3,0,0,0,8,3.29l1.36-3.28c.83-2,2.56-2.31,3.27-.59.51,1.24,1.38,3.27,1.38,3.27a4.3,4.3,0,1,0,7.93-3.35l-1.38-3.27a1.8,1.8,0,0,1,2.91-1.89l2.48,2.54a4.3,4.3,0,1,0,6.15-6l-2.48-2.55c-1.23-1.26.47-3.63,2.06-2.81l3.16,1.62a4.3,4.3,0,0,0,3.93-7.66l-3.17-1.62c-1.59-.82-.58-3.61,1.17-3.29l3.5.64a4.3,4.3,0,0,0,1.54-8.47l-3.49-.63c-1.79-.33-1.82-3.3,0-3.49,1.28-.14,3.52-.43,3.52-.43a4.3,4.3,0,1,0-1-8.54l-1.77.21a1.8,1.8,0,0,1-2.07-1.55c-1.14-6.84-2-13.72,1.86-23.16,6.2-15,44.05-94.45,45-96.63s-3.16-6.06-6.59-7.48-9-1.55-9.94.63S280.23,658.91,274,673.87c-3.91,9.44-9.42,13.67-15.06,17.7a1.81,1.81,0,0,1-2.56-.37l-1.1-1.4a4.3,4.3,0,1,0-6.76,5.31s1.37,1.79,2.19,2.8c1.17,1.44-1,3.52-2.45,2.48l-2.92-2a4.3,4.3,0,0,0-4.89,7.07Zm72.23-126c.85-2.07,3.53-2.92,6-1.9s3.75,3.51,2.9,5.57-3.54,2.91-6,1.9S311.85,581.47,312.71,579.42ZM262.28,713.71a8.43,8.43,0,1,1-11,4.56A8.44,8.44,0,0,1,262.28,713.71Z"/><path class="cls-1" d="M87.92,249.08c-18.84-7.81-29,5.61-32.86,14.89s-6.13,26,12.71,33.76c21,8.7,29-11.74,49-3.44,15,6.2,94.45,44.06,96.63,45s6.05-3.15,7.48-6.58,1.55-9-.64-9.94-85.15-30.34-100.12-36.54C100.13,277.89,108.92,257.77,87.92,249.08Zm126.7,75.78c2.06.85,2.91,3.53,1.9,6s-3.51,3.74-5.58,2.89-2.9-3.53-1.89-6S212.56,324,214.62,324.86Z"/><path class="cls-1" d="M741.22,518,677.77,491.7a4,4,0,0,0-5.22,2.17l-4.25,10.24a8.24,8.24,0,0,1-11,4.38c-24.9-11.22-86.94-40.75-88.87-41.55-2.18-.91-6.05,3.15-7.47,6.58s-1.55,9,.63,9.94c1.92.8,66.68,23.79,92.21,33.46a8.24,8.24,0,0,1,4.69,10.87L654.25,538a4,4,0,0,0,2.17,5.22l63.45,26.29a4,4,0,0,0,5.22-2.17l18.29-44.16A4,4,0,0,0,741.22,518ZM572.83,478.44c-1,2.45-3.51,3.74-5.57,2.89s-2.91-3.53-1.89-6,3.51-3.74,5.57-2.89S573.85,476,572.83,478.44Zm103,26.13,10.61-2a1.57,1.57,0,1,1,.59,3.08l-10.61,2-.3,0a1.57,1.57,0,0,1-.29-3.12Zm-3.24,7.82,25.78-4.89a1.57,1.57,0,1,1,.58,3.08l-25.77,4.9-.29,0a1.58,1.58,0,0,1-.3-3.12Zm-3.23,7.82,40.93-7.77a1.57,1.57,0,0,1,.59,3.08L670,523.3l-.3,0a1.57,1.57,0,0,1-.29-3.11ZM666.14,528l56.09-10.66a1.57,1.57,0,1,1,.59,3.09l-56.09,10.65-.3,0a1.57,1.57,0,0,1-.29-3.11Zm55.64,28.64-10.6,2-.3,0a1.57,1.57,0,0,1-.29-3.11l10.6-2a1.57,1.57,0,0,1,.59,3.09Zm3.24-7.82-25.77,4.89-.29,0a1.57,1.57,0,0,1-.29-3.11l25.76-4.9a1.57,1.57,0,1,1,.59,3.09Zm3.24-7.82-40.93,7.78a1.46,1.46,0,0,1-.29,0,1.57,1.57,0,0,1-.3-3.11l40.93-7.78a1.57,1.57,0,1,1,.59,3.09Zm3.24-7.82-56.09,10.66-.3,0a1.57,1.57,0,0,1-.29-3.12l56.09-10.65a1.57,1.57,0,1,1,.59,3.08Zm3.24-7.81-71.25,13.53a1.53,1.53,0,0,1-.3,0,1.57,1.57,0,0,1-.29-3.12l71.25-13.53a1.57,1.57,0,1,1,.59,3.09Z"/></svg>