<svg id="Layer_1" data-name="Layer 1" xmlns="http://www.w3.org/2000/svg" viewBox="0 0 1404.52 386.09"><defs><style>.cls-1{font-size:162.86px;font-family:OldStandardTT-Regular, Old Standard TT;letter-spacing:0.25em;}.cls-1,.cls-2{fill:#213242;}.cls-3{fill:#e7b90c;}</style></defs><title>Logo_wide</title><text class="cls-1" transform="translate(419.13 311.65)">mish</text><text class="cls-1" transform="translate(38.23 311.65)">the</text><path class="cls-2" d="M1051.1,89c0,37.08-13,67.14-29,67.14s-29-30.06-29-67.14c0-18.12,3.1-34.57,8.14-46.65,5.27-12.63,2,41.33,10.19,41.33,3.32,0,6.21-39.94,9.91-41.78,3.53-1.75,7.38,44.24,10.76,42.41,5.07-2.73,5.9-41.08,9.38-42S1051.1,78,1051.1,89Z"/><path class="cls-2" d="M1028.58,211.55h-11.47a445.31,445.31,0,0,0-2.08-50.94c-1-10-2.27-19.45-3.73-28.34h21.63q-1.4,10.17-2.41,21.1A475.62,475.62,0,0,0,1028.58,211.55Z"/><path class="cls-2" d="M1017.12,198.12l-.07-4.39h11.46l.33,108.47a3,3,0,0,0,3.58,3.59h8.47v3.9h-23.78V297.64l-.65-.16a28.65,28.65,0,0,1-7.9,10.34,17.16,17.16,0,0,1-11,3.83,22.75,22.75,0,0,1-14.25-5.13,35.3,35.3,0,0,1-10.51-14.09,52.44,52.44,0,0,1,0-39.74,35.3,35.3,0,0,1,10.51-14.09,22.75,22.75,0,0,1,14.25-5.13,17.49,17.49,0,0,1,11.4,4.16,25.58,25.58,0,0,1,7.49,10l.65-.16V201.23m-8.79,102.28a24.19,24.19,0,0,0,6.43-9.86,38.36,38.36,0,0,0,2.36-13.6v-15a38.36,38.36,0,0,0-2.36-13.6,24.15,24.15,0,0,0-6.43-9.85,13.28,13.28,0,0,0-9-3.59q-8,0-12.05,9t-4.07,25.57q0,16.62,4.07,25.57t12.05,9A13.32,13.32,0,0,0,1008.32,303.51Z"/><path class="cls-2" d="M1093,305.79h6.84a3,3,0,0,0,3.58-3.59V242.92a3,3,0,0,0-3.58-3.58H1093v-3.91h22.14V302.2a3,3,0,0,0,3.59,3.59h6.84v3.9H1093Z"/><path class="cls-2" d="M1181.28,279.4h2.93l6,12.87q8.8,15.47,22.8,15.47,7.5,0,11.16-3.66t3.66-10a9.63,9.63,0,0,0-2.84-6.76,20,20,0,0,0-7.58-4.8l-18.56-7.5a41.24,41.24,0,0,1-13.85-8.63,17.39,17.39,0,0,1-5-12.86q0-9.94,6.19-15t15.64-5.05a25.26,25.26,0,0,1,8.87,1.55,26.56,26.56,0,0,1,6.92,3.67q3.59,2.59,5.38,2.6c1.41,0,2.28-1,2.6-2.93l.33-3.26h2.93v24.76h-2.93l-2.28-5.7q-3.75-9.28-9.85-13a23.07,23.07,0,0,0-12.14-3.75,15.78,15.78,0,0,0-9.93,3,10,10,0,0,0-3.91,8.38,9.43,9.43,0,0,0,3.83,7.74,44.72,44.72,0,0,0,10.5,5.78l17.59,7.33q7.82,3.25,11.73,7.9t3.91,13q0,10.9-6.19,16t-16.29,5.13a24.86,24.86,0,0,1-9.77-1.63,34.1,34.1,0,0,1-7.33-4.4,22.56,22.56,0,0,0-2.93-1.95,5.58,5.58,0,0,0-2.61-.82q-3.9,0-5.37,5.54l-.65,3.26h-2.93Z"/><path class="cls-2" d="M1300.3,197.64l-.08-3.91h11.47l.2,55.05.65.17q3.75-7.83,9.29-11.65a21,21,0,0,1,12.21-3.83q11.89,0,16.86,7.33a30.63,30.63,0,0,1,5,17.59V302.2a3,3,0,0,0,3.58,3.59h6.84v3.9h-32.57v-3.9h6.84a3,3,0,0,0,3.58-3.59V255.3a24.51,24.51,0,0,0-2.85-12.22q-2.85-5-9.69-5.05a14.87,14.87,0,0,0-10.18,4,26.35,26.35,0,0,0-7,10.92,44.44,44.44,0,0,0-2.53,15.39V302.2a3,3,0,0,0,3.58,3.59h6.85v3.9h-34.86v-3.9h9.12a3.79,3.79,0,0,0,2.77-.82,3.83,3.83,0,0,0,.82-2.77v-101"/><path class="cls-3" d="M1234.26,175.36a93,93,0,1,1-107.75-148.8,95.59,95.59,0,1,0,134.94,85.15A92.66,92.66,0,0,1,1234.26,175.36Z"/><path class="cls-3" d="M1173.32,37.93a69.29,69.29,0,0,0-65.24,46,66.72,66.72,0,1,1,91.85,87.26,69.27,69.27,0,0,0-26.61-133.22Z"/><ellipse class="cls-2" cx="1305.27" cy="99.1" rx="28.98" ry="56.48"/><path class="cls-2" d="M1311.75,210.8h-11.58a443.9,443.9,0,0,0-2-50.94c-1-10-2.26-19.45-3.73-28.35h21.63q-1.39,10.19-2.41,21.1A475.61,475.61,0,0,0,1311.75,210.8Z"/></svg>