<svg id="Layer_1" data-name="Layer 1" xmlns="http://www.w3.org/2000/svg" viewBox="0 0 512 512"><defs><style>.cls-1{font-size:141.74px;letter-spacing:0.25em;}.cls-1,.cls-2,.cls-3{fill:#213242;}.cls-1,.cls-2{font-family:OldStandardTT-Regular, Old Standard TT;}.cls-2{font-size:71.1px;letter-spacing:0.1em;}.cls-4{fill:#e7b90c;}</style></defs><title>Logo</title><text class="cls-1" transform="translate(40.42 202.91)">mish</text><text class="cls-2" transform="translate(197.2 79.92)">the</text><path class="cls-3" d="M154.61,299.18c0,32.27-11.29,58.43-25.22,58.43s-25.23-26.16-25.23-58.43c0-15.78,2.7-30.09,7.09-40.6,4.59-11,1.74,36,8.86,36,2.89,0,5.41-34.76,8.63-36.35,3.07-1.53,6.42,38.5,9.37,36.91,4.41-2.38,5.13-35.76,8.16-36.54S154.61,289.59,154.61,299.18Z"/><path class="cls-3" d="M135,405.83H125a385.55,385.55,0,0,0-1.81-44.33c-.86-8.7-2-16.93-3.24-24.67H138.8q-1.22,8.87-2.1,18.36A413.78,413.78,0,0,0,135,405.83Z"/><path class="cls-3" d="M125,394.14l-.06-3.81h10l.29,94.4a2.61,2.61,0,0,0,3.12,3.11h7.37v3.41H125V480.76l-.56-.14a25,25,0,0,1-6.88,9A15,15,0,0,1,108,493a19.8,19.8,0,0,1-12.41-4.47,30.77,30.77,0,0,1-9.14-12.26,45.66,45.66,0,0,1,0-34.58,30.7,30.7,0,0,1,9.14-12.26A19.8,19.8,0,0,1,108,424.91a15.22,15.22,0,0,1,9.92,3.62,22.23,22.23,0,0,1,6.52,8.71l.56-.14V396.85m-7.65,89a21.06,21.06,0,0,0,5.6-8.58,33.26,33.26,0,0,0,2-11.83v-13a33.36,33.36,0,0,0-2-11.84,21.09,21.09,0,0,0-5.6-8.57,11.53,11.53,0,0,0-7.79-3.12q-7,0-10.49,7.8t-3.55,22.25q0,14.46,3.55,22.25t10.49,7.8A11.53,11.53,0,0,0,117.38,485.86Z"/><path class="cls-3" d="M191.08,487.84h6a2.6,2.6,0,0,0,3.11-3.11v-51.6A2.61,2.61,0,0,0,197,430h-6v-3.4h19.28v58.12a2.61,2.61,0,0,0,3.12,3.11h6v3.41H191.08Z"/><path class="cls-3" d="M267.9,464.88h2.56l5.24,11.2q7.65,13.47,19.84,13.46,6.52,0,9.71-3.18t3.19-8.72a8.37,8.37,0,0,0-2.48-5.88,17.47,17.47,0,0,0-6.59-4.19l-16.16-6.51a36.12,36.12,0,0,1-12-7.52,15.14,15.14,0,0,1-4.39-11.19q0-8.66,5.39-13t13.6-4.4a21.93,21.93,0,0,1,7.73,1.35,23.27,23.27,0,0,1,6,3.19q3.12,2.26,4.68,2.26c1.23,0,2-.85,2.27-2.55l.28-2.83h2.55v21.54h-2.55l-2-5q-3.27-8.07-8.58-11.34a20.09,20.09,0,0,0-10.56-3.26,13.72,13.72,0,0,0-8.64,2.63,8.7,8.7,0,0,0-3.41,7.3,8.18,8.18,0,0,0,3.34,6.73,38.89,38.89,0,0,0,9.14,5l15.31,6.38q6.79,2.83,10.2,6.87t3.4,11.27q0,9.5-5.38,14T295.4,493a21.63,21.63,0,0,1-8.5-1.42,29.59,29.59,0,0,1-6.38-3.83A20.92,20.92,0,0,0,278,486a4.84,4.84,0,0,0-2.27-.71q-3.4,0-4.68,4.82l-.56,2.84H267.9Z"/><path class="cls-3" d="M371.49,393.73l-.07-3.4h10l.18,47.91.57.14a25.1,25.1,0,0,1,8.07-10.14,18.33,18.33,0,0,1,10.64-3.33q10.33,0,14.67,6.38a26.63,26.63,0,0,1,4.32,15.31v38.13a2.61,2.61,0,0,0,3.12,3.11h5.95v3.41H400.57v-3.41h5.95a2.61,2.61,0,0,0,3.12-3.11V443.9a21.26,21.26,0,0,0-2.48-10.63q-2.48-4.38-8.43-4.39a13,13,0,0,0-8.86,3.47,22.9,22.9,0,0,0-6.09,9.5,38.74,38.74,0,0,0-2.2,13.39v29.49a2.61,2.61,0,0,0,3.12,3.11h5.95v3.41H360.32v-3.41h7.94a2.61,2.61,0,0,0,3.11-3.11V396.85"/><path class="cls-4" d="M314,374.34a81,81,0,1,1-93.77-129.51,83.2,83.2,0,1,0,117.44,74.11A80.63,80.63,0,0,1,314,374.34Z"/><path class="cls-4" d="M261,254.73a60.3,60.3,0,0,0-56.77,40,58.07,58.07,0,1,1,79.93,75.95,60.29,60.29,0,0,0-23.16-116Z"/><ellipse class="cls-3" cx="375.81" cy="307.96" rx="25.23" ry="49.15"/><path class="cls-3" d="M381.46,405.17H371.37a384.07,384.07,0,0,0-1.72-44.32c-.86-8.7-2-16.94-3.25-24.67h18.83q-1.22,8.85-2.1,18.36A413.39,413.39,0,0,0,381.46,405.17Z"/></svg>